<svg width="35" height="36" viewBox="0 0 35 36" fill="none" xmlns="http://www.w3.org/2000/svg">
<path fill-rule="evenodd" clip-rule="evenodd" d="M17.5 33.5556C26.0911 33.5556 33.0556 26.5911 33.0556 18C33.0556 9.4089 26.0911 2.44444 17.5 2.44444C8.9089 2.44444 1.94444 9.4089 1.94444 18C1.94444 26.5911 8.9089 33.5556 17.5 33.5556ZM17.5 35.5C27.165 35.5 35 27.665 35 18C35 8.33502 27.165 0.5 17.5 0.5C7.83502 0.5 0 8.33502 0 18C0 27.665 7.83502 35.5 17.5 35.5Z" fill="#030303"/>
<path fill-rule="evenodd" clip-rule="evenodd" d="M28 19.75H7V17.125H28V19.75Z" fill="black"/>
<path fill-rule="evenodd" clip-rule="evenodd" d="M15.75 28.5L15.75 7.5L18.375 7.5L18.375 28.5L15.75 28.5Z" fill="black"/>
</svg>
